<?xml version="1.0" encoding="utf-8"?>
<!-- Generator: Adobe Illustrator 27.8.1, SVG Export Plug-In . SVG Version: 6.00 Build 0)  -->
<svg version="1.1" id="Layer_1" xmlns="http://www.w3.org/2000/svg" xmlns:xlink="http://www.w3.org/1999/xlink" x="0px" y="0px"
	 viewBox="0 0 119.6 119.7" style="enable-background:new 0 0 119.6 119.7;" xml:space="preserve">
<style type="text/css">
	.st0{fill:#B32025;}
</style>
<g>
	<g>
		<g>
			<g>
				<path class="st0" d="M47.5,50.6l-0.4-0.2c-2.5-1.3-6.6-3.7-6.6-5.6v-9.5h14.2v9.6c0,1.6-3.7,3.9-6.8,5.5L47.5,50.6z M42.2,41.4
					v3.4c0.2,0.6,2.6,2.3,5.2,3.8c2.8-1.5,5.2-3.1,5.5-3.8v-3.4H42.2z M42.2,39.7H53V37H42.2V39.7z"/>
			</g>
		</g>
	</g>
	<g>
		<g>
			<g>
				<path class="st0" d="M59.8,119.7C26.8,119.7,0,92.9,0,59.8S26.8,0,59.8,0s59.8,26.8,59.8,59.8S92.9,119.7,59.8,119.7z M59.8,1.7
					c-32,0-58.1,26.1-58.1,58.1S27.8,118,59.8,118S118,91.9,118,59.8S91.9,1.7,59.8,1.7z"/>
			</g>
		</g>
	</g>
	<g>
		<g>
			<g>
				<path class="st0" d="M59.8,103.6c-24.1,0-43.7-19.6-43.7-43.7s19.6-43.7,43.7-43.7s43.7,19.6,43.7,43.7S83.9,103.6,59.8,103.6z
					 M59.8,17.9c-23.2,0-42,18.8-42,42s18.8,42,42,42s42-18.8,42-42S82.9,17.9,59.8,17.9z"/>
			</g>
		</g>
	</g>
	<g>
		<g>
			<g>
				<path class="st0" d="M72,50.6l-0.4-0.2c-2.5-1.3-6.7-3.7-6.7-5.6v-9.5h14.2v9.6c0,1.3-2.3,3.1-6.7,5.5L72,50.6z M66.6,44.8
					c0.2,0.6,2.6,2.4,5.4,3.8c2.7-1.5,5.1-3.1,5.4-3.8v-1.2L72,40.1l-5.4,3.5V44.8z M77.4,44.8L77.4,44.8L77.4,44.8z M72,38l5.4,3.5
					V37H66.7v4.5L72,38z"/>
			</g>
		</g>
	</g>
	<g>
		
			<rect x="50.7" y="64.7" transform="matrix(0.999 -4.549539e-02 4.549539e-02 0.999 -2.9335 2.5112)" class="st0" width="6" height="2"/>
		
			<rect x="50.7" y="70.2" transform="matrix(0.999 -4.528819e-02 4.528819e-02 0.999 -3.1695 2.5051)" class="st0" width="6" height="2"/>
		
			<rect x="50.7" y="75.7" transform="matrix(0.999 -4.528882e-02 4.528882e-02 0.999 -3.4186 2.5107)" class="st0" width="6" height="2"/>
		
			<rect x="65" y="68.2" transform="matrix(4.537148e-02 -0.999 0.999 4.537148e-02 -8.151 133.9525)" class="st0" width="2" height="6"/>
		
			<rect x="65" y="73.8" transform="matrix(4.537148e-02 -0.999 0.999 4.537148e-02 -13.6771 139.199)" class="st0" width="2" height="6"/>
		
			<rect x="65" y="62.8" transform="matrix(3.784508e-02 -0.9993 0.9993 3.784508e-02 -2.2341 129.3128)" class="st0" width="2" height="6"/>
		<path class="st0" d="M32,31.1V32c0,0.2,0.3,21.5,0,37.4c0.1,7.5,5,15,13.9,22c6.7,5.2,13.2,8.1,13.4,8.2l0.4,0.1l0.4-0.1
			c0.3-0.1,6.9-3.1,13.7-8.2c9.1-6.9,13.9-14.5,13.9-22c0-15.7,0-37.2,0-37.4v-0.9H32z M47,89.9C41,85.4,33.9,78,33.8,69.4
			c0.1-4.7,0.1-9.8,0.1-14.8h24.9v5.8c-0.8-0.2-1.7-0.3-2.7,0c-4.1,0.7-8.7,0.2-8.7,0.2l-1-0.1v5.3h-2.6v2.8h2.6v5.2h-2.6v2.8h2.6
			V82h0.9c0.3,0,6.1,0.1,9.7-0.5c0.6-0.1,1.5,0.5,1.8,0.7v15.1C56.6,96.3,51.8,93.7,47,89.9z M58.8,80.1c-0.4-0.2-0.9-0.3-1.4-0.3
			c-0.2,0-0.2,0-0.4,0c-2.7,0.5-6.9,0.5-8.7,0.5v-18c1.6,0.1,5,0.3,8.3-0.3h0.1c0.7-0.2,1.5-0.1,2.1,0.1
			C58.8,62.1,58.8,80.1,58.8,80.1z M60.6,62.1c0.6-0.2,1.7-0.4,2.6-0.1h0.1c3.2,0.6,6.6,0.5,8.3,0.3v18c-1.8,0-6,0-8.7-0.5
			c-0.8-0.1-1.6,0.1-2.3,0.3V62.1z M85.8,69.3c0,14.7-20,25.5-25.2,28v-15c0.4-0.2,1.2-0.8,1.9-0.7c3.6,0.6,9.6,0.5,9.8,0.5h0.9
			v-5.6h2.6v-2.8h-2.6v-5.2h2.6v-2.8h-2.6v-5.3l-1,0.1c0,0-4.6,0.5-8.7-0.2c-1-0.3-2.1-0.1-3,0.1v-5.8h25.2
			C85.8,59.5,85.8,64.7,85.8,69.3z M85.8,52.8H33.9c0-9.2-0.1-17.4-0.1-20h52.1C85.9,35.5,85.8,43.7,85.8,52.8z"/>
	</g>
	<g>
		<path class="st0" d="M9.2,60.1c1.2,0,2.2-0.4,2.9-1.1c0.7-0.8,1.2-1.9,1.3-3.2c0-0.7-0.1-1.4-0.1-1.9v-0.2h-1.9l0.2,0.4
			c0.2,0.3,0.2,1.1,0.2,1.6c0,0.7-0.3,1.3-0.9,1.8C10.4,57.9,9.7,58.1,9,58c-1.6-0.1-2.6-1.1-2.5-2.6c0-0.4,0.1-1,0.5-1.6l0-0.3
			l-1.9-0.3L5,53.3c-0.3,0.5-0.4,1.2-0.5,1.9c-0.2,2.9,1.4,4.7,4.3,4.9C8.9,60.1,9.1,60.1,9.2,60.1z"/>
		<path class="st0" d="M9.5,50.3c0.6,0.2,1.1,0.2,1.6,0.2c1.9,0,3.3-1.1,3.8-3c0.3-1.1,0.2-2.2-0.3-3.1c-0.5-1-1.5-1.7-2.9-2.1
			c-1.2-0.4-2.4-0.3-3.3,0.2c-1,0.5-1.7,1.4-2,2.6c-0.4,1.2-0.2,2.4,0.3,3.3C7.3,49.2,8.3,49.9,9.5,50.3z M8.1,45.5
			c0.1-0.5,0.4-0.9,0.8-1.1c0.3-0.2,0.7-0.3,1.2-0.3c0.3,0,0.7,0.1,1.1,0.2c0.9,0.3,1.6,0.7,1.9,1.3c0.2,0.4,0.3,0.9,0.1,1.4
			c-0.2,0.6-0.6,1.1-1.2,1.2c-0.5,0.2-1.2,0.1-1.9-0.1c-0.9-0.2-1.5-0.7-1.9-1.3C8,46.5,8,46,8.1,45.5z"/>
		<path class="st0" d="M18.1,39.1l-3-1.6l0.1-0.2c0.3-0.5,0.4-0.5,1-0.5l2.8,0.4l1.1-2l-3.8-0.4c-0.2,0-0.5,0-0.8,0.1
			c0.1-0.8-0.4-1.6-1.1-2c-0.6-0.3-1.2-0.4-1.8-0.3c-1,0.3-1.7,1.5-2.2,2.5l-1,1.8l7.6,4L18.1,39.1z M12.1,35.9l0.1-0.2
			c0.5-0.9,0.9-1.2,1.4-0.9c0.2,0.1,0.4,0.3,0.4,0.4c0.1,0.4-0.1,0.9-0.3,1.2l-0.1,0.2L12.1,35.9z"/>
		<polygon class="st0" points="22.9,31.5 18.8,28.1 24.6,29.5 26.1,27.7 19.5,22.2 18.2,23.8 22.2,27.1 16.5,25.8 15,27.6 
			21.6,33.1 		"/>
		<polygon class="st0" points="32.5,22.1 31.4,20.8 29,22.7 27.9,21.4 30.1,19.6 28.9,18.2 26.7,20 25.8,18.8 28.2,16.9 27.1,15.5 
			23.1,18.8 28.5,25.4 		"/>
		<polygon class="st0" points="39.7,17.8 38.8,16.3 36.1,17.8 32.8,11.9 31,12.9 35.2,20.4 		"/>
		<polygon class="st0" points="46.4,13.4 43.5,14.4 41.2,8 39.2,8.7 42.1,16.8 47,15 		"/>
		<path class="st0" d="M55.8,13.6c0.2,0,0.3,0,0.5,0c2.3-0.2,3.4-1.4,3.2-3.6l-0.4-5.4L57,4.8l0.4,4.9c0.1,0.7,0,1.2-0.2,1.5
			c-0.2,0.4-0.5,0.6-1,0.6s-0.9-0.1-1.1-0.4c-0.2-0.3-0.4-0.8-0.5-1.5L54.2,5l-2.1,0.2l0.4,5.4C52.7,12.6,53.8,13.6,55.8,13.6z"/>
		<polygon class="st0" points="69.9,14.1 71.1,5.6 69.1,5.4 68.4,10.6 66.4,5 64.1,4.7 63,13.2 65,13.5 65.7,8.2 67.6,13.8 		"/>
		<rect x="71" y="10.2" transform="matrix(0.2996 -0.9541 0.9541 0.2996 42.001 79.7145)" class="st0" width="8.6" height="2.1"/>
		<polygon class="st0" points="88.4,12.3 86.5,11.4 82.3,15.7 83.2,9.7 81.2,8.7 79.9,17.7 82,18.7 		"/>
		<polygon class="st0" points="90.4,19.9 92.6,21.7 93.7,20.3 91.5,18.5 92.4,17.4 94.8,19.3 95.9,17.9 91.8,14.7 86.6,21.4 
			90.7,24.6 91.8,23.2 89.3,21.3 		"/>
		<path class="st0" d="M94.3,28.3l2.5-2.2l0.2,0.2c0.4,0.4,0.3,0.6,0.1,1.1l-1.3,2.5l1.5,1.7l1.7-3.4c0.1-0.2,0.2-0.5,0.2-0.8
			c0.8,0.4,1.6,0.2,2.3-0.3c1.8-1.6,0.4-3.3-0.7-4.5L99.4,21L93,26.6L94.3,28.3z M98.1,24.9l1.3-1.1l0.2,0.2
			c0.3,0.4,0.6,0.8,0.6,1.1c0,0.2-0.1,0.3-0.3,0.5c-0.2,0.2-0.4,0.2-0.6,0.2c-0.4,0-0.8-0.4-1-0.7L98.1,24.9z"/>
		<path class="st0" d="M101.9,35.4c-0.3-0.1-0.6-0.3-0.8-0.7c-0.3-0.5-0.4-1.1-0.5-1.7v-0.4l-1.9,0.9l0.1,0.4
			c0.2,0.7,0.3,1.1,0.7,1.8c0.5,0.8,1,1.3,1.7,1.6c0.3,0.1,0.6,0.2,0.9,0.2c0.5,0,0.9-0.1,1.4-0.4c1.5-0.9,1.3-2.3,1.1-3.3
			c-0.1-0.8-0.2-1.2,0.2-1.4c0.7-0.4,1.1,0.2,1.3,0.4c0.3,0.4,0.4,0.9,0.5,1.5v0.3l1.7-0.8v-0.2c-0.1-0.6-0.4-1.2-0.7-1.9
			c-0.3-0.5-0.8-1.1-1.6-1.5c-0.7-0.3-1.5-0.2-2.3,0.2c-1.5,0.9-1.2,2.2-1.1,3.3c0.1,0.8,0.2,1.3-0.2,1.6
			C102.2,35.4,102.1,35.4,101.9,35.4z"/>
		<rect x="102.6" y="39.4" transform="matrix(0.926 -0.3776 0.3776 0.926 -7.3644 43.3578)" class="st0" width="8.6" height="2.1"/>
		<polygon class="st0" points="111.4,46 104.8,47.6 105.3,49.7 111.9,48 112.5,50.3 114.2,49.8 112.6,43.4 110.9,43.8 		"/>
		<polygon class="st0" points="106.4,56.5 106.5,58.6 109.8,58.4 115.2,61.2 115.1,58.9 111.9,57.3 114.9,55.4 114.7,53 109.7,56.3 
					"/>
		<polygon class="st0" points="10.9,76.3 12.6,75.8 11.9,73.1 13.3,72.7 14.1,75.5 15.8,75 14.4,70.2 6.2,72.6 6.8,74.6 10.2,73.6 
					"/>
		<path class="st0" d="M18.5,83.5c0.3-1,0.2-2.1-0.3-3.2c-1.1-2.3-3.4-3-5.8-1.8C11.2,79.1,10.3,80,10,81s-0.2,2.1,0.3,3.2
			s1.3,1.8,2.3,2.2c0.4,0.1,0.8,0.2,1.2,0.2c0.7,0,1.5-0.2,2.3-0.6C17.3,85.4,18.2,84.5,18.5,83.5z M16.8,82.5
			c-0.2,0.6-0.8,1.2-1.6,1.6s-1.6,0.5-2.3,0.3c-0.4-0.2-0.8-0.5-1-0.9c-0.8-1.7,1-2.7,1.5-3c0.5-0.2,1-0.4,1.5-0.4
			c0.7,0,1.3,0.3,1.7,1C16.9,81.6,16.9,82,16.8,82.5z"/>
		<path class="st0" d="M24.6,90.3l-3.8,3.1c-0.6,0.5-1.2,0.7-1.6,0.7c-0.3,0-0.6-0.2-0.8-0.5c-0.3-0.3-0.4-0.6-0.3-0.9
			c0.1-0.4,0.4-0.9,1-1.4l3.8-3l-1.3-1.6l-4.2,3.4c-1.7,1.4-1.8,3-0.4,4.8c0.8,1.1,1.7,1.6,2.7,1.6c0.7,0,1.4-0.3,2.1-0.9l4.2-3.4
			L24.6,90.3z"/>
		<polygon class="st0" points="31.9,97.3 28.6,101.4 29.9,95.6 28,94.1 22.6,100.8 24.2,102 27.5,98 26.3,103.8 28.1,105.3 
			33.5,98.6 		"/>
		<path class="st0" d="M38.3,101.4l-2.2-1.1l-3.8,7.7l2.2,1.1c1.1,0.5,2,0.8,2.9,0.8c0.4,0,0.8-0.1,1.1-0.2c1-0.3,1.7-1.1,2.3-2.2
			C42,104.9,41.2,102.9,38.3,101.4z M37.8,103.1c1.1,0.5,1.8,1.8,1,3.3c-0.7,1.5-2.2,1.7-3.3,1.2l-0.6-0.3l2.3-4.5L37.8,103.1z"/>
		<polygon class="st0" points="43.2,112.8 48.3,114.1 48.7,112.4 45.7,111.6 46.1,109.9 48.9,110.6 49.4,108.9 46.6,108.2 47,106.7 
			50,107.6 50.4,105.8 45.4,104.5 		"/>
		<path class="st0" d="M55.9,106.5l-2.4-0.1L53,115l2.4,0.1c0.2,0,0.4,0,0.6,0c2.9,0,4.4-1.4,4.6-4c0.1-1.6-0.4-2.7-1.3-3.5
			C58.5,107,57.4,106.6,55.9,106.5z M58.4,111c-0.1,1.6-1.4,2.4-2.5,2.4h-0.6l0.3-5h0.6C57.3,108.4,58.5,109.3,58.4,111z"/>
		<path class="st0" d="M68.3,105.9l-1.5,9.1l2.2-0.5l0.3-2l2.9-0.6l1.1,1.7l2.3-0.5l-5.1-7.7L68.3,105.9z M69.8,108.2l1.3,2.1
			l-1.6,0.3L69.8,108.2z"/>
		
			<rect x="76.8" y="109.9" transform="matrix(0.9396 -0.3422 0.3422 0.9396 -33.2707 33.337)" class="st0" width="2.1" height="2.1"/>
		<path class="st0" d="M84.6,100.8c-1.1-0.3-2.4-0.1-3.9,0.7l-2.2,1.2l4.1,7.5l2.2-1.2c2.9-1.5,3.6-3.6,2.3-6.1
			C86.4,101.9,85.6,101.1,84.6,100.8z M83.6,107.7l-2.4-4.4l0.6-0.3c0.6-0.3,1.2-0.4,1.8-0.2c0.6,0.2,1.1,0.6,1.5,1.3
			c0.8,1.4,0.1,2.8-0.9,3.4L83.6,107.7z"/>
		
			<rect x="89.2" y="103.5" transform="matrix(0.8205 -0.5717 0.5717 0.8205 -43.5732 70.3751)" class="st0" width="2.1" height="2.1"/>
		<polygon class="st0" points="92.2,93.2 91.9,96.5 93.7,96.8 93.8,95.3 98,99.5 99.5,98 93.5,92 		"/>
		<path class="st0" d="M103.9,88.7c-0.7-0.5-1.5-0.6-2.5-0.2c0-0.9-0.4-1.6-0.9-2c-1.1-0.8-2.4-0.4-3.5,1.1c-1,1.4-0.9,2.8,0.2,3.7
			c0.6,0.5,1.4,0.5,2.2,0.2c-0.1,1,0.2,1.7,0.9,2.2c0.5,0.4,1,0.5,1.5,0.5c0.1,0,0.2,0,0.3,0c0.8-0.1,1.5-0.6,2.1-1.5
			c0.6-0.8,0.9-1.6,0.7-2.4C104.9,89.7,104.5,89.1,103.9,88.7z M103,90.9c0,0.2,0,0.5-0.2,0.7l0,0c-0.3,0.4-0.8,0.6-1.3,0.2
			c-0.4-0.3-0.5-0.6-0.4-1.3c0.6-0.4,1.1-0.5,1.6-0.2C102.9,90.6,103,90.7,103,90.9z M99.9,89.3c-0.6,0.3-1,0.5-1.4,0.3
			c-0.5-0.3-0.2-0.9,0-1.2c0.1-0.2,0.3-0.3,0.5-0.3h0.1c0.2,0,0.3,0.1,0.5,0.2C99.8,88.5,99.9,88.9,99.9,89.3z"/>
		<path class="st0" d="M107.8,80.2c-1.5-0.7-2.9-0.3-3.6,1.1c-0.2,0.4-0.3,0.9-0.2,1.3c-0.6-0.5-1.2-1.2-0.7-2.1
			c0.2-0.5,0.5-0.8,0.9-1l0.2-0.2l-1.5-1.1l-0.1,0.1c-0.4,0.4-0.8,0.9-1.1,1.5c-0.4,0.8-0.5,1.7-0.2,2.5c0.5,1.4,1.9,2.3,3,2.9
			c1,0.5,1.8,0.7,2.5,0.7c0.3,0,0.6,0,0.9-0.1c0.7-0.2,1.2-0.7,1.6-1.5C110.2,82.6,109.6,81.1,107.8,80.2z M105.6,82.4
			c0.2-0.3,0.4-0.4,0.7-0.4c0.3,0,0.7,0.1,0.8,0.2c0.4,0.2,0.7,0.5,0.8,0.7c0.1,0.2,0,0.3,0,0.5c-0.1,0.2-0.2,0.3-0.4,0.4
			c-0.3,0.1-0.6,0-1-0.2l0,0c-0.4-0.2-0.7-0.5-0.8-0.8C105.5,82.8,105.5,82.6,105.6,82.4z"/>
		<path class="st0" d="M110.9,71.5c-0.9-0.3-1.6-0.2-2.2,0.1c-0.8,0.5-1.2,1.3-1.3,1.8c-0.1,0.2-0.1,0.3-0.1,0.5l-1.1-0.4l0.9-3
			l-1.6-0.5l-1.5,4.9l4.7,1.5v-0.3c0-0.5,0.1-0.9,0.2-1.4s0.6-1.5,1.6-1.2c0.3,0.1,0.5,0.3,0.7,0.5c0.2,0.3,0.2,0.8,0,1.2
			c-0.2,0.6-0.5,1-0.8,1.4l-0.2,0.3l1.9,0.6l0.1-0.2c0.3-0.6,0.6-1.2,0.8-1.8c0.3-1,0.3-2-0.1-2.7C112.3,72.2,111.7,71.7,110.9,71.5
			z"/>
	</g>
</g>
</svg>
