<?xml version="1.0" encoding="utf-8"?>
<!-- Generator: Adobe Illustrator 27.8.1, SVG Export Plug-In . SVG Version: 6.00 Build 0)  -->
<svg version="1.1" id="Layer_1" xmlns="http://www.w3.org/2000/svg" xmlns:xlink="http://www.w3.org/1999/xlink" x="0px" y="0px"
	 viewBox="0 0 685.1 120" style="enable-background:new 0 0 685.1 120;" xml:space="preserve">
<style type="text/css">
	.st0{fill:#ffffff;}
</style>
<g>
	<path class="st0" d="M52.1,83c-4,0-7.7-1-11-3s-5.9-4.7-7.8-8.3c-2-3.5-2.9-7.5-2.9-12s0.9-8.4,2.9-12c2-3.5,4.6-6.2,7.8-8.3
		c3.3-2,7-3,11-3c3.6,0,6.9,0.8,9.7,2.4c2.9,1.5,5.2,3.6,6.9,6.1c1.8,2.5,3,5.2,3.7,8h-8.5c-0.7-2.4-2.1-4.3-4.3-6
		c-2.1-1.7-4.6-2.5-7.6-2.5c-2.4,0-4.7,0.7-6.8,2c-2.1,1.2-3.7,3-4.9,5.3s-1.7,4.9-1.7,7.8s0.6,5.6,1.7,7.9c1.2,2.3,2.9,4,4.9,5.3
		c2.1,1.2,4.3,1.8,6.8,1.8c3.1,0,5.6-0.8,7.7-2.5c2.1-1.7,3.4-3.8,4.1-6.3h8.5c-0.6,2.9-1.8,5.6-3.6,8.3c-1.8,2.6-4.1,4.6-6.9,6.2
		C59.1,82.2,55.8,83,52.1,83L52.1,83z"/>
	<path class="st0" d="M91.8,83c-3.1,0-5.9-0.7-8.5-2.2c-2.5-1.5-4.5-3.5-5.9-6.1s-2.1-5.5-2.1-8.7s0.7-6.1,2.1-8.7
		c1.5-2.5,3.4-4.6,5.9-6.1c2.6-1.5,5.4-2.2,8.5-2.2s5.9,0.7,8.4,2.2c2.6,1.5,4.5,3.5,5.9,6.1c1.5,2.5,2.2,5.5,2.2,8.7
		c0,3.2-0.7,6.1-2.2,8.7c-1.4,2.6-3.4,4.6-5.9,6.1C97.8,82.2,95,83,91.8,83z M91.8,75.6c2.4,0,4.5-0.9,6.1-2.6
		c1.7-1.8,2.5-4.1,2.5-6.9c0-1.9-0.4-3.6-1.2-5s-1.8-2.6-3.1-3.4c-1.3-0.8-2.7-1.2-4.3-1.2s-3,0.4-4.4,1.2c-1.3,0.8-2.4,2-3.1,3.4
		c-0.8,1.5-1.1,3.1-1.1,5s0.4,3.6,1.1,5.1s1.8,2.6,3.1,3.4C88.8,75.2,90.2,75.6,91.8,75.6L91.8,75.6z"/>
	<path class="st0" d="M112.7,82.3V49.7h6.8l0.6,2.8h0.3c1.3-1.8,3.3-2.8,5.9-2.8h6v7.4h-5.5c-2.1,0-3.6,0.5-4.7,1.7
		c-1.1,1.1-1.6,2.7-1.6,4.8v18.7H112.7L112.7,82.3z"/>
	<path class="st0" d="M137.5,82.3V49.7h6.8l0.6,3.1h0.3c0.8-1,2-1.8,3.7-2.5c1.6-0.8,3.6-1.2,5.7-1.2c2.5,0,4.7,0.6,6.6,1.7
		s3.5,2.7,4.6,4.8s1.7,4.5,1.7,7.1v19.5h-7.8V63.7c0-2.1-0.6-3.8-2-5.2c-1.3-1.4-3-2.1-5-2.1s-3.8,0.7-5.2,2.1
		c-1.4,1.4-2.1,3.1-2.1,5.2v18.5L137.5,82.3L137.5,82.3L137.5,82.3z"/>
	<path class="st0" d="M188.1,83.5c-3.1,0-5.9-0.7-8.4-2.2s-4.5-3.5-6-6.1c-1.4-2.6-2.1-5.5-2.1-8.7s0.7-6.1,2.1-8.7
		c1.5-2.5,3.5-4.6,6-6.1s5.4-2.2,8.4-2.2s5.7,0.7,8.2,2.1c2.4,1.4,4.3,3.4,5.7,5.9c1.4,2.4,2.1,5.2,2.1,8.3c0,1.4-0.1,2.5-0.3,3.3
		h-24.4c0.3,2.3,1.2,4.2,2.9,5.6c1.6,1.4,3.6,2.1,5.8,2.1c1.6,0,3.1-0.4,4.3-1c1.3-0.7,2.2-1.5,2.8-2.5h8c-0.9,2.7-2.7,5.1-5.3,7.1
		C195.3,82.5,192,83.5,188.1,83.5L188.1,83.5z M196.2,63.8c-0.2-2.2-1.1-4-2.5-5.5c-1.5-1.5-3.4-2.2-5.6-2.2c-2.4,0-4.3,0.7-5.9,2.2
		c-1.5,1.4-2.5,3.3-2.9,5.5H196.2L196.2,63.8z"/>
	<path class="st0" d="M216.7,82.3h-7.8V37.2h7.8V82.3z"/>
	<path class="st0" d="M230.7,82.3h-7.8V37.2h7.8V82.3z"/>
	<path class="st0" d="M258,82.2h-8.4V37.1h8.4v18.2h19.5V37.1h8.4v45.1h-8.4V63.7H258V82.2L258,82.2z"/>
	<path class="st0" d="M303.8,82.8c-2.5,0-4.7-0.5-6.7-1.7s-3.5-2.8-4.6-4.8c-1.1-2.1-1.6-4.5-1.6-7.1V49.7h7.8v18.5
		c0,2.1,0.6,3.9,2,5.2c1.3,1.3,3,2,5,2s3.9-0.7,5.2-2.1c1.4-1.4,2.1-3.2,2.1-5.2V49.7h7.8v32.6h-6.6l-0.6-3.2h-0.4
		c-0.8,1-2.1,2-3.8,2.7C307.8,82.5,306,82.8,303.8,82.8L303.8,82.8z"/>
	<path class="st0" d="M326.2,82.2V49.6h6.8l0.6,3.1h0.3c0.7-1,1.8-1.8,3.3-2.5c1.5-0.8,3-1.2,4.8-1.2c2.2,0,4.1,0.5,5.6,1.5
		c1.6,1,2.7,2.1,3.4,3.3h0.3c0.8-1.3,2.2-2.4,4-3.3c1.8-1,3.9-1.5,6.2-1.5c2.3,0,4.3,0.5,6.1,1.7c1.8,1.1,3.3,2.7,4.3,4.6
		s1.6,4.2,1.6,6.7v20.2h-7.9V62.9c0-2-0.5-3.6-1.5-4.7c-1-1.2-2.4-1.7-4.1-1.7s-3.1,0.6-4.4,1.8c-1.2,1.2-1.7,2.7-1.7,4.6v19.3H346
		V62.9c0-2-0.5-3.6-1.5-4.7c-1-1.2-2.4-1.7-4.1-1.7s-3.1,0.6-4.4,1.8c-1.2,1.2-1.8,2.7-1.8,4.6v19.3L326.2,82.2L326.2,82.2z"/>
	<path class="st0" d="M388.9,82.8c-2.4,0-4.4-0.4-6.2-1.3s-3.2-2.1-4.1-3.6s-1.4-3.3-1.4-5.2c0-3.3,1.1-5.8,3.3-7.7
		c2.3-2,5.5-2.9,9.9-2.9h7.8v-0.8c0-1.8-0.5-3.2-1.7-4.3c-1.1-1.1-2.5-1.7-4.4-1.7c-1.7,0-3,0.4-4,1.2s-1.7,1.7-2,2.7h-7.8
		c0.2-1.8,0.8-3.5,2-5.1c1.1-1.6,2.7-2.8,4.7-3.8s4.4-1.5,7.1-1.5s5.3,0.5,7.4,1.6c2.1,1,3.7,2.5,4.8,4.4s1.7,4,1.7,6.4V82h-6.8
		l-0.7-3.2h-0.3c-0.7,1-2,1.9-3.6,2.7S391.1,82.8,388.9,82.8z M390.2,76.5c2.5,0,4.5-0.7,5.9-2.1s2.1-3.3,2.1-5.6v-0.9h-7
		c-2.1,0-3.6,0.4-4.6,1.2c-1,0.8-1.5,1.8-1.5,3.2s0.5,2.3,1.4,3.1C387.3,76.1,388.6,76.5,390.2,76.5L390.2,76.5z"/>
	<path class="st0" d="M411.1,82.2V49.6h6.8l0.7,3.1h0.3c0.8-1,2-1.8,3.7-2.5c1.6-0.8,3.6-1.2,5.7-1.2c2.5,0,4.7,0.6,6.7,1.7
		s3.5,2.7,4.6,4.8s1.7,4.5,1.7,7.1v19.5h-7.8V63.6c0-2.1-0.7-3.8-2-5.2s-3-2.1-5-2.1s-3.8,0.7-5.2,2.1c-1.4,1.4-2.1,3.1-2.1,5.2
		v18.5L411.1,82.2L411.1,82.2L411.1,82.2z"/>
	<path class="st0" d="M494.4,82.3h-34.3V37.2h34.6v7.7h-26.3v11h23.3v7.5h-23.3v11.2h26V82.3L494.4,82.3z"/>
	<path class="st0" d="M513.4,83c-3.1,0-5.9-0.7-8.4-2.2s-4.5-3.5-6-6.1c-1.4-2.6-2.1-5.5-2.1-8.7s0.7-6.1,2.1-8.7
		c1.5-2.5,3.5-4.6,6-6.1s5.3-2.2,8.4-2.2c2.8,0,5.4,0.6,7.6,1.7c2.2,1.2,3.9,2.7,5.3,4.6s2.2,3.9,2.6,6.2h-8
		c-0.5-1.5-1.4-2.7-2.6-3.7s-2.8-1.5-4.9-1.5c-1.6,0-3,0.4-4.4,1.2c-1.3,0.8-2.3,2-3.1,3.4c-0.8,1.5-1.2,3.2-1.2,5.1
		s0.4,3.6,1.2,5.1s1.8,2.6,3.1,3.4s2.8,1.2,4.4,1.2c2.1,0,3.7-0.5,4.9-1.5c1.3-1,2.1-2.4,2.5-4h8c-0.4,2.3-1.3,4.5-2.6,6.4
		c-1.3,2-3.1,3.5-5.3,4.6S516.3,83,513.4,83z"/>
	<path class="st0" d="M548.6,83c-3.2,0-5.9-0.7-8.5-2.2c-2.5-1.5-4.5-3.5-5.9-6.1s-2.1-5.5-2.1-8.7s0.7-6.1,2.1-8.7
		c1.5-2.5,3.5-4.6,5.9-6.1c2.5-1.5,5.3-2.2,8.5-2.2s5.9,0.7,8.4,2.2s4.5,3.5,5.9,6.1c1.5,2.5,2.2,5.5,2.2,8.7c0,3.2-0.7,6.1-2.2,8.7
		c-1.4,2.6-3.4,4.6-5.9,6.1C554.5,82.2,551.7,83,548.6,83z M548.6,75.6c2.4,0,4.5-0.9,6.1-2.6c1.7-1.8,2.5-4.1,2.5-6.9
		c0-1.9-0.4-3.6-1.1-5c-0.8-1.5-1.8-2.6-3.2-3.4c-1.3-0.8-2.7-1.2-4.3-1.2s-3,0.4-4.4,1.2c-1.3,0.8-2.4,2-3.2,3.4
		c-0.8,1.5-1.2,3.1-1.2,5s0.4,3.6,1.2,5.1s1.8,2.6,3.2,3.4S547,75.6,548.6,75.6L548.6,75.6z"/>
	<path class="st0" d="M576.4,82.3h-7.8V37.2h7.8V82.3z"/>
	<path class="st0" d="M596.3,83c-3.2,0-5.9-0.7-8.5-2.2c-2.5-1.5-4.5-3.5-5.9-6.1s-2.1-5.5-2.1-8.7s0.7-6.1,2.1-8.7
		c1.5-2.5,3.5-4.6,5.9-6.1c2.5-1.5,5.3-2.2,8.5-2.2s5.9,0.7,8.4,2.2s4.5,3.5,5.9,6.1c1.5,2.5,2.2,5.5,2.2,8.7c0,3.2-0.7,6.1-2.2,8.7
		c-1.4,2.6-3.4,4.6-5.9,6.1C602.2,82.2,599.4,83,596.3,83z M596.3,75.6c2.4,0,4.5-0.9,6.1-2.6c1.7-1.8,2.5-4.1,2.5-6.9
		c0-1.9-0.4-3.6-1.2-5s-1.8-2.6-3.2-3.4c-1.3-0.8-2.7-1.2-4.3-1.2s-3,0.4-4.4,1.2c-1.3,0.8-2.4,2-3.2,3.4c-0.8,1.5-1.2,3.1-1.2,5
		s0.4,3.6,1.2,5.1s1.8,2.6,3.2,3.4C593.3,75.2,594.7,75.6,596.3,75.6L596.3,75.6z"/>
	<path class="st0" d="M632.1,96.5c-3.5,0-6.3-0.7-8.6-2c-2.3-1.2-4-2.8-5.1-4.6c-1.1-1.8-1.7-3.6-1.7-5.3h8c0.2,1.3,1,2.4,2.2,3.5
		c1.2,1,3,1.5,5.3,1.5c2.4,0,4.3-0.7,5.6-2.1c1.4-1.4,2.1-3.2,2.1-5.4v-4.6h-0.3c-1,1-2.2,1.9-3.8,2.6s-3.3,0.9-5.3,0.9
		c-2.8,0-5.3-0.7-7.6-2s-4-3.2-5.3-5.5s-2-5.1-2-8.2s0.7-5.7,2-8c1.3-2.4,3-4.3,5.3-5.6s4.8-2,7.6-2c2.1,0,3.9,0.4,5.5,1.2
		c1.6,0.7,2.9,1.7,4,3h0.3l0.7-3.6h6.8V82c0,4.4-1.4,7.8-4.2,10.5C640.8,95.2,637,96.5,632.1,96.5L632.1,96.5z M631.7,74
		c2.3,0,4.3-0.8,5.8-2.4c1.6-1.6,2.4-3.7,2.4-6.2s-0.8-4.6-2.4-6.2c-1.5-1.6-3.5-2.4-5.8-2.4s-4.2,0.8-5.8,2.4
		c-1.5,1.6-2.3,3.7-2.3,6.2s0.8,4.6,2.3,6.2C627.5,73.3,629.4,74,631.7,74z"/>
	<path class="st0" d="M676.7,50.5h8.4L671,90.1c-0.7,2.1-1.7,3.6-3,4.5c-1.2,0.9-3,1.4-5.5,1.4h-7.6v-7.2h6.4c1,0,1.8-0.5,2.2-1.5
		l0.8-2.1l-13.2-34.5h8.4l8.4,22.6h1.3L676.7,50.5L676.7,50.5z"/>
</g>
</svg>
