<?xml version="1.0" encoding="utf-8"?>
<!-- Generator: Adobe Illustrator 27.2.0, SVG Export Plug-In . SVG Version: 6.00 Build 0)  -->
<svg version="1.1" id="Layer_2_00000161605105636881797510000015199542093917761185_"
	 xmlns="http://www.w3.org/2000/svg" xmlns:xlink="http://www.w3.org/1999/xlink" x="0px" y="0px" viewBox="0 0 30 30"
	 style="enable-background:new 0 0 30 30;" xml:space="preserve">
<style type="text/css">
	.st0{display:none;fill:#2A2A2A;}
	.st1{display:none;}
	.st2{display:inline;fill:#2A2A2A;}
</style>
<path class="st0" d="M19.1,12.1h-0.9v-0.5c-0.4,0.4-0.6,0.6-1,0.6c-0.3,0-0.5-0.1-0.6-0.4c-0.1-0.1-0.1-0.4-0.1-0.7v-4h0.9v3.6
	c0,0.2,0,0.3,0,0.3c0,0.1,0.1,0.2,0.2,0.2c0.2,0,0.3-0.2,0.5-0.4V7.1H19L19.1,12.1L19.1,12.1L19.1,12.1z M15.9,8.8
	c0-0.5-0.1-0.9-0.3-1.2c-0.2-0.3-0.6-0.5-1-0.5s-0.8,0.1-1,0.5c-0.2,0.2-0.3,0.6-0.3,1.2v1.7c0,0.5,0.1,0.9,0.3,1.1
	c0.2,0.3,0.6,0.5,1,0.5s0.8-0.2,1-0.5c0.2-0.2,0.3-0.6,0.3-1.1V8.8L15.9,8.8z M15,10.6c0,0.5-0.1,0.7-0.4,0.7
	c-0.3,0-0.4-0.2-0.4-0.7V8.7c0-0.5,0.1-0.7,0.4-0.7C14.9,8,15,8.2,15,8.7V10.6z M12.2,9.4v2.7h-1V9.4c0,0-1-3.3-1.2-3.9h1l0.7,2.6
	l0.7-2.6h1L12.2,9.4z"/>
<g class="st1">
	<path class="st2" d="M22,16.1c0,0-0.1-1-0.6-1.4c-0.5-0.6-1.1-0.6-1.4-0.6C18,14,15,14,15,14l0,0c0,0-3,0-5,0.1
		c-0.3,0-0.9,0-1.4,0.6C8.2,15.2,8,16.1,8,16.1s-0.1,1.1-0.1,2.3v1.1c0,1.1,0.1,2.3,0.1,2.3s0.1,1,0.6,1.4c0.5,0.6,1.3,0.5,1.6,0.6
		C11.3,23.9,15,24,15,24s3,0,5-0.1c0.3,0,0.9,0,1.4-0.6c0.4-0.4,0.6-1.4,0.6-1.4s0.1-1.1,0.1-2.3v-1.1C22.1,17.3,22,16.1,22,16.1z
		 M11,22.1h-0.9v-5.5h-1v-0.9h3v0.9H11V22.1z M14.5,22.1L14.5,22.1L14.5,22.1h-0.9v-0.5c-0.3,0.4-0.6,0.6-0.9,0.6
		c-0.3,0-0.5-0.1-0.6-0.4C12,21.7,12,21.4,12,21.1v-3.8h0.9v3.5c0,0.2,0,0.3,0,0.3c0,0.1,0.1,0.2,0.2,0.2c0.2,0,0.3-0.2,0.5-0.4
		v-3.6h0.9C14.5,17.3,14.5,22.1,14.5,22.1z M17.7,20.6c0,0.4,0,0.8-0.1,1c-0.1,0.4-0.4,0.5-0.7,0.5c-0.3,0-0.6-0.2-0.9-0.5v0.5h-0.9
		v-6.4H16v2.1c0.3-0.3,0.6-0.5,0.9-0.5s0.6,0.2,0.7,0.6c0.1,0.2,0.1,0.5,0.1,0.9V20.6z M20.9,19.8h-1.7v0.9c0,0.4,0.1,0.7,0.4,0.7
		c0.2,0,0.3-0.1,0.4-0.3c0,0,0-0.3,0-0.6h0.9v0.1c0,0.3,0,0.5,0,0.6c0,0.2-0.1,0.4-0.2,0.5c-0.2,0.3-0.6,0.5-1,0.5
		c-0.5,0-0.8-0.2-1-0.5c-0.2-0.2-0.3-0.6-0.3-1.1v-1.7c0-0.5,0.1-0.9,0.3-1.1c0.3-0.3,0.6-0.5,1-0.5s0.8,0.2,1,0.5
		c0.2,0.2,0.3,0.6,0.3,1.1L20.9,19.8L20.9,19.8z"/>
	<path class="st2" d="M19.6,18c-0.3,0-0.4,0.1-0.4,0.6l0,0v0.5H20v-0.5C20,18.2,19.9,18,19.6,18z"/>
	<path class="st2" d="M16.5,18c-0.1,0-0.3,0.1-0.5,0.2v2.9c0.1,0.1,0.3,0.2,0.5,0.2s0.4-0.2,0.4-0.7v-2.1C16.8,18.2,16.7,18,16.5,18
		z"/>
</g>
<path d="M16.4,13.9L22,7.5h-1.3L15.8,13L12,7.5H7.5l5.9,8.3l-5.9,6.7h1.3l5.1-5.8l4.1,5.8h4.5 M9.3,8.5h2l9.4,13.1h-2"/>
</svg>
